<?xml version="1.0" standalone="no"?>
<!DOCTYPE svg PUBLIC "-//W3C//DTD SVG 20010904//EN"
 "http://www.w3.org/TR/2001/REC-SVG-20010904/DTD/svg10.dtd">
<svg version="1.0" xmlns="http://www.w3.org/2000/svg"
 width="870.000000pt" height="425.000000pt" viewBox="0 0 870.000000 425.000000"
 preserveAspectRatio="xMidYMid meet">

<g transform="translate(0.000000,425.000000) scale(0.100000,-0.100000)"
fill="#000000" stroke="none">
<path d="M3176 3903 c-4 -93 -4 -180 -1 -195 l5 -28 -290 0 -290 0 0 -1100 0
-1100 285 0 285 0 0 -55 0 -55 -285 0 -285 0 0 -100 c0 -73 -3 -100 -12 -100
-9 0 -8 -4 2 -10 10 -7 -35 -10 -143 -9 -92 1 -153 5 -145 10 10 7 9 9 -4 9
-9 0 -18 -6 -21 -12 -2 -7 -7 -10 -11 -7 -4 4 0 14 9 23 15 14 15 16 1 16 -9
0 -16 -4 -16 -8 0 -5 -89 -13 -197 -20 -150 -9 -199 -9 -204 0 -6 9 -57 9
-211 -1 -140 -8 -204 -9 -206 -1 -2 5 -11 10 -20 10 -11 0 -13 -3 -5 -8 6 -4
-182 -7 -418 -7 -236 0 -429 3 -429 8 0 4 183 7 408 8 224 0 415 3 424 7 10 4
-174 7 -407 7 -408 0 -425 -1 -431 -19 -4 -13 -9 -15 -13 -7 -5 7 -38 13 -77
15 -38 2 -49 1 -24 -1 71 -7 76 -25 5 -21 -49 2 -60 6 -63 22 -4 18 2 19 84
14 49 -3 82 -3 74 -1 -13 3 -15 162 -12 1364 l2 1360 -72 -3 -73 -3 -2 -1210
c-1 -665 -3 -1276 -3 -1357 0 -134 -2 -148 -17 -149 -11 0 -13 -3 -5 -6 15 -6
16 -33 1 -33 -5 0 -7 5 -4 10 3 6 1 10 -4 10 -6 0 -11 -4 -11 -10 0 -5 -5 -10
-12 -10 -6 0 -9 3 -5 6 7 8 -17 34 -32 34 -6 0 -11 -9 -11 -21 0 -16 -4 -19
-20 -14 -16 5 -19 3 -14 -12 3 -10 -2 -6 -12 9 -30 45 -39 40 -40 -21 -1 -41
0 -45 3 -13 2 23 8 42 13 42 5 0 6 -7 3 -17 -4 -11 -3 -14 5 -9 7 4 12 1 12
-9 0 -9 -4 -13 -10 -10 -6 4 -9 -14 -9 -47 1 -29 4 -41 6 -25 2 15 11 40 19
55 l14 27 0 -32 0 -33 3920 0 3921 0 8 -22 c7 -17 10 -5 12 49 4 72 -6 89 -14
23 l-4 -35 -1 38 -2 37 -92 2 c-51 1 -100 2 -108 2 -11 0 -14 9 -12 38 l4 37
-609 1 c-371 0 -622 4 -644 10 -54 15 -115 64 -141 112 -18 34 -23 58 -22 118
1 89 25 144 79 186 71 54 63 53 715 55 333 0 594 4 580 9 l-25 7 25 11 c64 26
120 120 120 202 0 94 -64 186 -145 209 -44 12 -456 13 -810 1 l-210 -6 173 -2
c149 -2 178 -5 211 -22 40 -20 91 -72 91 -93 0 -7 4 -6 10 3 8 13 10 12 11 -5
1 -11 1 -32 0 -47 -1 -16 3 -28 8 -28 17 0 13 -47 -5 -65 -9 -8 -13 -22 -10
-31 3 -9 2 -12 -5 -9 -6 4 -9 -1 -7 -11 2 -11 -2 -18 -8 -17 -6 1 -22 -9 -34
-22 -25 -27 -21 -35 4 -9 9 8 16 11 16 5 0 -11 -53 -42 -67 -40 -4 1 -15 1
-23 0 -13 -1 -13 -2 0 -11 9 -6 10 -10 3 -10 -6 0 -15 5 -18 10 -4 6 -11 8
-16 4 -5 -3 -231 -7 -502 -9 -270 -2 -562 -7 -648 -12 -149 -8 -158 -9 -205
-38 -72 -45 -108 -109 -112 -201 -6 -101 15 -159 77 -217 68 -64 116 -77 299
-80 84 -1 152 -5 152 -9 0 -5 -9 -8 -19 -8 -11 0 -21 -5 -23 -11 -3 -9 -10 -9
-26 0 -16 8 -28 9 -41 1 -11 -5 -30 -10 -43 -9 -13 0 -17 3 -10 6 26 11 9 18
-45 20 -57 2 -57 1 -19 -8 22 -5 42 -12 45 -16 7 -7 -70 6 -84 15 -5 4 -35 6
-65 5 -37 -1 -49 2 -35 7 16 7 13 8 -13 7 -32 -2 -32 -2 -13 -18 19 -15 10
-16 -130 -18 -104 -1 -149 1 -144 8 3 6 39 11 78 12 40 0 95 4 122 9 34 5 16
6 -60 3 -60 -2 -120 -6 -132 -9 -13 -2 -23 0 -23 6 0 5 -7 10 -15 10 -8 0 -15
-8 -15 -19 0 -15 -9 -18 -61 -20 -46 -1 -60 2 -56 11 2 8 22 13 55 13 29 -1
52 3 52 8 0 15 -133 4 -138 -12 -3 -9 0 -11 8 -6 9 5 11 4 6 -3 -10 -17 -24
-15 -29 6 -3 12 -5 13 -6 2 -1 -13 -20 -15 -119 -12 -64 1 -159 5 -211 8 -73
5 -96 3 -103 -7 -7 -11 -8 -9 -6 5 2 10 -2 21 -9 23 -7 3 -9 -3 -6 -16 5 -20
1 -21 -61 -21 -43 0 -66 4 -66 11 0 8 19 10 63 7 34 -3 51 -3 37 0 -24 4 -24
5 -5 13 17 8 16 9 -5 4 -14 -2 -42 -5 -62 -5 -26 0 -38 -5 -41 -18 -4 -13 -5
-11 -6 6 -1 28 -19 28 -31 -1 l-9 -22 0 23 c-1 21 -5 22 -76 22 -41 0 -75 -4
-75 -8 0 -4 32 -6 70 -4 54 3 70 1 70 -9 0 -11 -35 -15 -171 -17 -116 -2 -169
1 -164 8 3 5 43 10 91 10 46 0 84 3 84 8 0 4 -42 5 -92 2 -51 -3 -94 -2 -96 2
-7 16 -32 7 -32 -12 0 -18 -8 -19 -191 -19 -167 0 -189 2 -178 15 6 8 9 17 5
21 -3 3 -6 1 -6 -6 0 -7 -4 -9 -10 -6 -7 4 -10 498 -10 1451 l0 1444 -359 0
-358 0 -7 -167z m-242 -735 c70 -71 108 -265 88 -445 -26 -224 -109 -337 -188
-258 -94 94 -122 424 -52 613 22 60 75 122 103 122 9 0 32 -15 49 -32z m946
-1983 c0 -9 5 -13 10 -10 6 3 10 0 10 -7 0 -19 -728 -19 -748 0 -10 9 -75 11
-265 10 -139 -1 -210 -4 -159 -5 131 -5 120 -24 -14 -22 -91 1 -105 4 -102 18
3 14 32 16 266 19 194 2 270 -1 294 -10 26 -10 101 -11 357 -4 272 7 325 7
332 -5 7 -11 9 -10 9 5 0 19 -10 19 -337 12 -213 -4 -344 -3 -353 3 -10 7 109
10 343 11 319 0 357 -1 357 -15z m2488 -6 c18 0 30 -4 27 -9 -3 -4 1 -10 7
-13 7 -2 -13 -5 -44 -4 -32 0 -58 4 -58 8 0 5 -7 9 -16 9 -8 0 -12 -4 -9 -10
4 -6 -9 -9 -32 -9 -30 2 -32 3 -10 6 16 3 27 11 27 20 0 12 7 14 38 8 20 -3
52 -6 70 -6z m82 1 c0 -5 -7 -10 -15 -10 -8 0 -15 5 -15 10 0 6 7 10 15 10 8
0 15 -4 15 -10z m96 -6 c15 -4 24 -2 24 6 0 6 5 8 11 5 20 -13 -23 -34 -49
-24 -29 11 -35 11 -28 0 3 -4 -7 -6 -22 -2 -25 5 -25 6 -4 9 13 2 20 8 16 14
-5 8 -1 9 10 5 10 -4 29 -10 42 -13z m106 3 c7 -8 20 -16 28 -19 8 -4 -6 -5
-32 -5 -48 2 -68 16 -25 18 21 1 21 1 -3 9 -23 7 -23 8 -3 9 12 1 28 -5 35
-12z m1208 2 c0 -5 -55 -10 -122 -11 l-123 -2 120 -3 c104 -3 121 -1 132 14
14 18 17 14 7 -11 -5 -13 -57 -15 -410 -15 -222 -1 -404 2 -404 7 0 4 124 8
276 8 151 1 278 5 281 8 4 3 -120 6 -275 6 -154 0 -283 -4 -286 -9 -7 -11
-314 -14 -353 -4 l-28 7 35 7 c53 10 1150 8 1150 -2z m-7553 -21 c-3 -8 -6 -5
-6 6 -1 11 2 17 5 13 3 -3 4 -12 1 -19z m4000 0 c-3 -8 -6 -5 -6 6 -1 11 2 17
5 13 3 -3 4 -12 1 -19z m400 0 c-3 -8 -6 -5 -6 6 -1 11 2 17 5 13 3 -3 4 -12
1 -19z m800 0 c-3 -8 -6 -5 -6 6 -1 11 2 17 5 13 3 -3 4 -12 1 -19z m-2362 2
c4 -6 -38 -10 -119 -10 -77 0 -126 4 -126 10 0 6 46 10 119 10 69 0 122 -4
126 -10z m2730 0 c-3 -5 -14 -10 -23 -10 -15 0 -15 2 -2 10 20 13 33 13 25 0z
m52 -6 c-3 -3 -12 -4 -19 -1 -8 3 -5 6 6 6 11 1 17 -2 13 -5z"/>
<path d="M4894 3876 c-3 -7 -4 -42 -2 -77 l3 -64 223 -3 222 -2 0 80 0 80
-220 0 c-176 0 -222 -3 -226 -14z"/>
<path d="M4157 3862 c-39 -10 -65 -21 -60 -26 4 -5 -3 -6 -17 -2 -25 6 -25 6
-2 -5 12 -7 22 -19 21 -28 0 -10 -2 -12 -6 -3 -2 6 -9 12 -14 12 -6 0 -7 -4
-4 -10 3 -5 1 -10 -5 -10 -7 0 -10 7 -6 15 3 8 0 15 -7 16 -7 0 -20 2 -29 4
-10 2 -18 -1 -18 -6 0 -5 9 -9 20 -9 11 0 20 -5 20 -11 0 -6 -8 -8 -18 -5 -12
4 -26 -1 -37 -14 -10 -11 -13 -20 -7 -20 16 0 15 -57 0 -64 -7 -3 1 -3 17 0
17 3 48 7 70 9 22 2 77 12 123 21 66 14 81 20 78 33 -2 9 -10 40 -16 69 -7 28
-17 52 -23 51 -7 0 -43 -8 -80 -17z m-137 -98 c0 -8 -4 -12 -10 -9 -5 3 -10
10 -10 16 0 5 5 9 10 9 6 0 10 -7 10 -16z m94 -30 c3 -8 2 -12 -4 -9 -6 3 -10
10 -10 16 0 14 7 11 14 -7z m-97 -16 c-3 -8 -6 -5 -6 6 -1 11 2 17 5 13 3 -3
4 -12 1 -19z"/>
<path d="M3960 3810 c-13 -8 -12 -10 3 -10 9 0 17 5 17 10 0 12 -1 12 -20 0z"/>
<path d="M3970 3731 c0 -6 5 -13 10 -16 6 -3 10 1 10 9 0 9 -4 16 -10 16 -5 0
-10 -4 -10 -9z"/>
<path d="M4892 2713 l3 -908 223 -3 222 -2 0 910 0 910 -225 0 -225 0 2 -907z
m333 47 l0 -595 -110 0 -110 0 -3 585 c-1 322 0 591 3 598 3 9 32 12 112 10
l108 -3 0 -595z"/>
<path d="M4182 3513 c-18 -4 -23 -10 -19 -25 4 -14 2 -18 -10 -14 -8 3 -17 6
-19 6 -3 0 -2 5 1 10 3 6 -1 10 -9 10 -9 0 -16 -4 -16 -10 0 -5 5 -10 11 -10
8 0 8 -4 1 -13 -7 -9 -8 -23 -3 -43 9 -29 9 -29 10 9 1 54 21 45 23 -10 1 -41
2 -43 5 -13 3 19 9 40 15 45 7 7 8 3 3 -14 -5 -15 -3 -26 6 -32 17 -10 1 -60
-21 -66 -12 -4 -12 -3 -2 5 11 8 11 10 -1 15 -8 3 -17 4 -20 1 -7 -7 27 -154
36 -154 4 0 5 10 1 23 -15 46 -22 87 -14 82 5 -3 11 1 14 7 3 7 3 -2 0 -21 -4
-23 -3 -31 5 -27 7 5 11 -6 11 -33 0 -22 -5 -41 -12 -43 -10 -4 -9 -15 1 -54
6 -27 16 -65 21 -84 l9 -35 -3 35 c-2 19 -7 46 -12 59 -5 16 -4 22 4 17 6 -3
14 -20 17 -37 5 -23 9 -28 16 -18 7 11 9 9 10 -6 1 -14 4 -11 9 10 7 25 8 22
7 -19 -2 -31 -7 -51 -16 -54 -9 -3 -11 2 -6 17 3 11 2 21 -3 21 -11 0 -19 -52
-14 -87 2 -13 7 -23 12 -23 5 0 8 12 6 28 -2 15 -1 20 2 12 4 -12 6 -11 13 5
7 17 8 18 8 2 1 -10 -6 -34 -14 -54 -17 -41 -19 -56 -4 -30 16 27 29 10 29
-36 l-1 -42 -14 30 -15 30 6 -35 c3 -19 13 -70 22 -113 14 -66 19 -77 34 -74
14 4 17 0 13 -19 -15 -75 -16 -79 -5 -64 9 12 10 9 9 -15 -3 -50 1 -86 9 -82
4 3 8 -17 9 -44 0 -27 6 -56 13 -64 6 -8 9 -18 7 -22 -3 -5 3 -10 14 -10 23
-2 24 1 4 21 -14 14 -14 20 0 63 l15 48 -5 -47 c-4 -27 -2 -49 5 -53 5 -3 10
-16 10 -28 0 -18 2 -19 10 -7 8 13 10 12 10 -4 0 -11 -12 -32 -26 -47 -24 -25
-25 -31 -15 -61 6 -18 14 -53 17 -78 8 -55 8 -55 29 -33 17 16 17 16 12 -2
-13 -48 -16 -92 -8 -120 6 -18 10 -23 10 -11 1 11 6 16 15 13 7 -3 18 -1 24 5
10 10 16 -7 27 -87 4 -28 3 -34 -4 -20 -9 19 -9 19 -19 -5 -10 -24 -11 -24
-11 -2 -1 12 3 22 7 22 5 0 9 14 10 31 l1 32 -21 -42 c-15 -31 -18 -45 -9 -55
6 -7 9 -20 5 -29 -3 -8 -1 -18 5 -21 6 -4 8 -13 4 -21 -3 -8 0 -15 7 -15 8 0
10 10 6 34 -4 20 -2 37 4 41 13 8 13 -60 0 -85 -11 -21 -2 -82 11 -74 5 3 9
15 9 26 0 12 3 18 7 15 3 -4 0 -25 -7 -47 -10 -29 -10 -44 -2 -52 6 -6 8 -18
5 -27 -3 -12 -2 -12 7 2 7 10 9 30 5 44 -3 14 -2 30 3 36 6 7 12 21 15 32 3
11 4 0 1 -25 -3 -25 -1 -65 5 -90 5 -25 9 -35 10 -22 2 33 18 27 25 -9 10 -53
8 -72 -9 -65 -8 3 -15 0 -15 -7 0 -8 -4 -6 -10 3 -5 8 -10 32 -10 53 0 24 -4
36 -11 32 -6 -4 -7 -19 -3 -38 4 -18 7 -38 7 -44 0 -7 4 -13 9 -13 5 0 6 -10
3 -21 -5 -15 -4 -19 4 -15 6 4 11 14 11 22 0 30 15 13 16 -19 1 -17 -1 -26 -3
-19 -3 6 -9 10 -14 6 -16 -10 -10 -24 11 -24 16 0 20 7 21 33 2 31 2 32 6 3 4
-27 7 -28 45 -23 22 3 42 8 45 11 4 3 -26 155 -66 338 -40 183 -92 423 -116
533 -24 110 -91 418 -149 684 -58 267 -106 488 -106 493 0 8 -27 9 -68 1z m15
-195 c-3 -8 -6 -5 -6 6 -1 11 2 17 5 13 3 -3 4 -12 1 -19z m22 -91 c0 -27 -2
-29 -9 -12 -12 28 -12 57 0 50 6 -3 10 -21 9 -38z m18 -119 c-3 -7 -5 -2 -5
12 0 14 2 19 5 13 2 -7 2 -19 0 -25z m52 -190 c1 -5 -3 -8 -9 -8 -5 0 -10 12
-9 28 0 24 1 25 9 7 5 -11 9 -23 9 -27z m17 -83 c-2 -7 2 -32 10 -55 12 -33
12 -50 4 -76 -12 -34 -30 -46 -30 -20 0 8 -3 22 -7 32 -4 11 -3 15 4 11 16
-10 27 48 14 72 -14 26 -14 64 0 56 6 -4 8 -13 5 -20z m-16 -80 c0 -8 -4 -15
-10 -15 -5 0 -7 7 -4 15 4 8 8 15 10 15 2 0 4 -7 4 -15z m50 -97 c-4 -65 -2
-76 10 -58 6 9 10 10 10 3 0 -6 -4 -15 -10 -18 -5 -3 -11 -23 -11 -43 -1 -29
-3 -25 -10 22 -5 32 -7 72 -4 90 2 17 4 34 4 39 1 4 4 7 7 7 3 0 5 -19 4 -42z
m40 -140 c0 -5 -4 -8 -10 -8 -5 0 -10 10 -10 23 0 18 2 19 10 7 5 -8 10 -18
10 -22z m-23 -110 c-3 -8 -6 -5 -6 6 -1 11 2 17 5 13 3 -3 4 -12 1 -19z m64
-155 c-14 -48 -14 -76 -1 -68 6 4 10 -5 10 -19 0 -44 -18 -28 -26 22 -4 26
-11 50 -17 53 -5 4 -6 12 -2 19 6 9 9 9 16 -1 6 -11 9 -9 9 7 0 11 3 24 7 27
13 13 14 -2 4 -40z m42 -105 c3 -21 2 -40 -2 -43 -5 -2 -11 12 -14 33 -3 20
-9 48 -13 62 -6 24 -6 24 8 5 8 -11 18 -37 21 -57z m17 -97 c0 -10 -7 -24 -15
-31 -12 -10 -15 -10 -15 1 0 11 -3 11 -11 -1 -9 -13 -10 -13 -6 0 2 8 12 14
21 12 13 -2 15 2 10 24 -5 19 -4 25 5 20 6 -4 11 -15 11 -25z m45 -261 c-9
-41 -17 -33 -9 9 4 17 9 30 11 27 3 -2 2 -19 -2 -36z m39 -125 c3 -8 1 -15 -4
-15 -6 0 -10 7 -10 15 0 8 2 15 4 15 2 0 6 -7 10 -15z"/>
<path d="M4292 2630 c0 -14 2 -19 5 -12 2 6 2 18 0 25 -3 6 -5 1 -5 -13z"/>
<path d="M4360 2305 c0 -8 5 -15 10 -15 6 0 10 7 10 15 0 8 -4 15 -10 15 -5 0
-10 -7 -10 -15z"/>
<path d="M4411 2074 c0 -11 3 -14 6 -6 3 7 2 16 -1 19 -3 4 -6 -2 -5 -13z"/>
<path d="M4447 1956 c-5 -15 -6 -31 -3 -34 8 -8 18 25 14 45 -3 13 -6 10 -11
-11z"/>
<path d="M7302 1920 c0 -14 2 -19 5 -12 2 6 2 18 0 25 -3 6 -5 1 -5 -13z"/>
<path d="M4890 1440 l0 -249 225 -3 225 -3 0 253 0 252 -225 0 -225 0 0 -250z
m290 71 c37 -27 53 -83 36 -124 -38 -93 -179 -88 -204 6 -15 55 14 117 63 138
27 12 75 3 105 -20z"/>
<path d="M4561 1562 c-7 -14 -6 -19 3 -19 6 0 13 9 13 19 1 10 0 18 -2 18 -2
0 -9 -8 -14 -18z"/>
<path d="M246 1178 c7 -11 34 -10 34 1 0 6 -9 9 -19 8 -11 0 -17 -5 -15 -9z"/>
<path d="M1578 1183 c23 -2 61 -2 85 0 23 2 4 4 -43 4 -47 0 -66 -2 -42 -4z"/>
<path d="M1978 1183 c23 -2 61 -2 85 0 23 2 4 4 -43 4 -47 0 -66 -2 -42 -4z"/>
<path d="M2328 1178 c22 -9 141 -8 212 1 38 5 11 7 -87 7 -78 -1 -134 -4 -125
-8z"/>
<path d="M4020 1180 c-63 -5 -40 -6 87 -6 95 1 173 4 173 9 0 8 -132 7 -260
-3z"/>
<path d="M7900 1180 c0 -5 5 -10 11 -10 5 0 7 5 4 10 -3 6 -8 10 -11 10 -2 0
-4 -4 -4 -10z"/>
<path d="M8023 1183 c-51 -2 -93 -7 -93 -11 0 -13 179 -8 185 6 2 6 3 11 2 10
-1 -1 -44 -4 -94 -5z"/>
<path d="M8130 1180 c0 -5 4 -10 9 -10 6 0 13 5 16 10 3 6 -1 10 -9 10 -9 0
-16 -4 -16 -10z"/>
<path d="M5095 1173 c95 -7 213 -7 208 0 -2 4 -59 6 -126 5 -67 -1 -104 -3
-82 -5z"/>
<path d="M8147 1159 c-18 -11 -25 -89 -8 -89 10 0 9 -19 -2 -37 -5 -7 -4 -13
1 -13 6 0 15 14 21 31 13 37 14 64 1 34 -7 -19 -8 -19 -15 -1 -5 11 -3 21 5
26 7 4 10 15 7 23 -3 9 -1 18 6 20 7 2 10 7 7 10 -3 3 -13 1 -23 -4z"/>
<path d="M240 1042 c0 -11 7 -23 16 -26 28 -11 7844 -7 7844 4 0 7 -1316 11
-3922 12 l-3923 3 3925 5 3925 5 -3917 3 c-2154 1 -3923 5 -3932 8 -11 4 -16
0 -16 -14z"/>
<path d="M201 913 l-1 -133 3985 0 3986 0 -3 110 -3 110 -3965 0 c-2181 0
-3970 4 -3976 8 -6 4 -14 14 -17 22 -3 8 -6 -45 -6 -117z"/>
</g>
</svg>
